/* XPM */
static char * 1_xpm[] = {
"32 32 3 1",
" 	c #DBA050",
".	c #D0923F",
"+	c #A96826",
"     . + .     + .     + .     +",
"       +     . + .     + .     +",
"  .    +     . +       + .  .  +",
"  .    +       +     . +    .  +",
"  .    +       +     . +    .  +",
"  .    +  . .  +     . +    .  +",
"  .    +  . .  +     . +    .  +",
"  .    +  . .  +++++++++    .  +",
"  .  . +    .  + .     +       +",
"  .  . +    .  +    .  +       +",
"  .  . +    .  +    .  +  .    +",
"     . +    .  +    .  +  .    +",
"     . +    .  +    .  +  .  . +",
"     . +       +    .  +  .  . +",
".    . + .     +    .  +  .  . +",
"++++++++ .     +    .  +  .    +",
" .     + .     +    .  +  .    +",
"       + .  .  +       +  .    +",
"    .  + .  .  +  .    +  .    +",
"    .  + .  .  +  .    +  .    +",
"    .  + .  .  +  .    +     . +",
"    .  + .  .  +  .  . +     . +",
"    .  + .  .  +  .  . +     . +",
"    .  + .     +  .  . +++++++++",
"    .  + .     +  .  . +   .   +",
"    .  + .     +  .    +   .   +",
"  .    + .     +  .    +   .   +",
"  .    + .     +       +     . +",
"  .    + .     +       +     . +",
"  .    +       +       +     . +",
"  .  . +     . + .     + .   . +",
"  .  . +++++++++ .     + .   . +"};
