/* XPM */
static char * 1_xpm[] = {
"32 32 3 1",
" 	c #C0282C",
".	c #DBA050",
"+	c #980A0E",
"               .               .",
"+++++++++++++++.+++++++++++++++.",
"+++++++++++++++.+++++++++++++++.",
"+++++++++++++++.+++++++++++++++.",
"+++++++++++++++.+++++++++++++++.",
"+++++++++++++++.+++++++++++++++.",
"+++++++++++++++.+++++++++++++++.",
"................................",
"       .               .        ",
"+++++++.+++++++++++++++.++++++++",
"+++++++.+++++++++++++++.++++++++",
"+++++++.+++++++++++++++.++++++++",
"+++++++.+++++++++++++++.++++++++",
"+++++++.+++++++++++++++.++++++++",
"+++++++.+++++++++++++++.++++++++",
"................................",
"               .               .",
"+++++++++++++++.+++++++++++++++.",
"+++++++++++++++.+++++++++++++++.",
"+++++++++++++++.+++++++++++++++.",
"+++++++++++++++.+++++++++++++++.",
"+++++++++++++++.+++++++++++++++.",
"+++++++++++++++.+++++++++++++++.",
"................................",
"       .               .        ",
"+++++++.+++++++++++++++.++++++++",
"+++++++.+++++++++++++++.++++++++",
"+++++++.+++++++++++++++.++++++++",
"+++++++.+++++++++++++++.++++++++",
"+++++++.+++++++++++++++.++++++++",
"+++++++.+++++++++++++++.++++++++",
"................................"};
