/* XPM */
static char * C_xpm[] = {
"32 32 13 1",
" 	c #DBA050",
".	c #D0923F",
"+	c #A96826",
"@	c #000000",
"#	c #A0A0A0",
"$	c #484848",
"%	c #808080",
"&	c #5C5C5C",
"*	c #6F6F6F",
"=	c #939393",
"-	c #5F5F5F",
";	c #626262",
">	c #868686",
"     . + .     + .     + .     +",
"       +     . + .     + .     +",
"  .    +     . +       + .  .  +",
"  .    +       +     . +    .  +",
"  .    +       +     . +    .  +",
"  .    + @@@@@@@@@@@@@@+    .  +",
"  .    @@##############@@   .  +",
"  .   @##$$$$$$$$$$$$$$##@  .  +",
"  .  .@#$%%%%%%%%%%%%%%$#@     +",
"  .  @#$%##############%$#@    +",
"  .  @#$%##############%$#@    +",
"     @#$%###%&&#&&&&%##%$#@    +",
"     @#$%###&##&####&##%$#@  . +",
"     @#$%###&#######&##%$#@  . +",
".    @#$%###&###*&==-##%$#@  . +",
"+++++@#$%###&##&&%;;>##%$#@    +",
" .   @#$%#%&&##&&%#####%$#@    +",
"     @#$%#&######&#####%$#@    +",
"    .@#$%#%&&##&&%#####%$#@    +",
"    .@#$%#&######&#####%$#@    +",
"    .@#$%#%&&##&&%#####%$#@  . +",
"    .@#$%###%&&%#######%$#@  . +",
"    .@#$%##############%$#@  . +",
"    . @#$%%%%%%%%%%%%%%$#@++++++",
"    . @##$$$$$$$$$$$$$$##@ .   +",
"    .  @@##############@@  .   +",
"  .    + @@@@@@@@@@@@@@+   .   +",
"  .    + .     +       +     . +",
"  .    + .     +       +     . +",
"  .    +       +       +     . +",
"  .  . +     . + .     + .   . +",
"  .  . +++++++++ .     + .   . +"};
