/* XPM */
static char * E_xpm[] = {
"32 32 9 1",
" 	c #DBA050",
".	c #D0923F",
"+	c #2942AF",
"@	c #A96826",
"#	c #000000",
"$	c #AA6F31",
"%	c #95D0DC",
"&	c #965A1C",
"*	c #1F2122",
"     .++++++++++++++++++++     @",
"      ++++++++++++++++++++     @",
"  .   ++################++  .  @",
"  .   ++#$$$$$$$$$$$$$$#++  .  @",
"  .   ++#$$$$$$$$$$$$$$#++  .  @",
"  .   ++#$$$$$$$$$$$$$$#++  .  @",
"  .   ++#$$$$$$$$$###$$#++  .  @",
"  .   ++#$$$$$$$$$#%#$$#++  .  @",
"  .  .++#$$$$$$$$$#%#$$#++     @",
"  .  .++#$$$$$$$$$#%#$$#++     @",
"  .  .++#$$$$$$$$$#%#$$#++.    @",
"     .++#$$$$$$$$$#%#$$#++.    @",
"     .++#$$$$$$$$$#%#$$#++.  . @",
"     .++#$$$$$$$$$#%#$$#++.  . @",
".    .++#$$$$$$$$$#%#$$#++.  . @",
"@@@@@@++#$$$$$$$$$###$$#++.    @",
" .    ++#$$$$$$$$$&&&$$#++.    @",
"      ++#$$$$$$$$$$$$$$#++.    @",
"    . ++#$$$$$$$$$$$**$#++.    @",
"    . ++#$$$$$$$$$$$*#$#++.    @",
"    . ++#$$$$$$$$$$$*#$#++   . @",
"    . ++#$$$$$$$$$$$*#$#++   . @",
"    . ++#$$$$$$$$$$$*#$#++   . @",
"    . ++#$$$$$$$$$$$**$#++@@@@@@",
"    . ++#$$$$$$$$$$$&&$#++ .   @",
"    . ++#$$$$$$$$$$$$$$#++ .   @",
"  .   ++#$$$$$$$$$$$$$$#++ .   @",
"  .   ++#$$$$$$$$$$$$$$#++   . @",
"  .   ++#$************$#++   . @",
"  .   ++#$************$#++   . @",
"  .  .++#$$$$$$$$$$$$$$#++   . @",
"  .  .++################++   . @"};
