/* XPM */
static char * E2_xpm[] = {
"32 32 19 1",
" 	c #DBA050",
".	c #D0923F",
"+	c #2942AF",
"@	c #A96826",
"#	c #000000",
"$	c #FFFFFF",
"%	c #AA6F31",
"&	c #AC7032",
"*	c #AD7132",
"=	c #80B4BE",
"-	c #85BBC6",
";	c #965A1C",
">	c #A96E30",
",	c #A86D30",
"'	c #A96E31",
")	c #1F2122",
"!	c #93591F",
"~	c #3B2D23",
"{	c #3D2E24",
"     .++++++++++++++++++++     @",
"      ++++++++++++++++++++     @",
"  .   ++############$$$$++  .  @",
"  .   ++#%%%%%%%%%%#$$$$++  .  @",
"  .   ++#&%%%%%%%%&#$$$$++  .  @",
"  .   ++#&%%%%%%%%&#$$$$++  .  @",
"  .   ++#&%%%%%###*#$$$$++  .  @",
"  .   ++#&%%%%%#=#*#$$$$++  .  @",
"  .  .++#&%%%%%#-#*#$$$$++     @",
"  .  .++#&%%%%%#-#*#$$$$++     @",
"  .  .++#&%%%%%#-#*#$$$$++.    @",
"     .++#&%%%%%#-#*#$$$$++.    @",
"     .++#&%%%%%#-#*#$$$$++.  . @",
"     .++#&%%%%%#-#*#$$$$++.  . @",
".    .++#&%%%%%#=#*#$$$$++.  . @",
"@@@@@@++#&%%%%%###*#$$$$++.    @",
" .    ++#&%%%%%;;;&#$$$$++.    @",
"      ++#&%%%%%>,%%#$$$$++.    @",
"    . ++#&%%%%%%')%#$$$$++.    @",
"    . ++#&%%%%%%'#%#$$$$++.    @",
"    . ++#&%%%%%%'#%#$$$$++   . @",
"    . ++#&%%%%%%'#%#$$$$++   . @",
"    . ++#&%%%%%%'#%#$$$$++   . @",
"    . ++#&%%%%%%')%#$$$$++@@@@@@",
"    . ++#&%%%%%%%!%#$$$$++ .   @",
"    . ++#&%%%%%%%,%#$$$$++ .   @",
"  .   ++#&%%%%%%%%&#$$$$++ .   @",
"  .   ++#%%%%%%%%%%#$$$$++   . @",
"  .   ++#%~{{{{{{~%#$$$$++   . @",
"  .   ++#%~{{{{{{~%#$$$$++   . @",
"  .  .++#%%%%%%%%%%#$$$$++   . @",
"  .  .++############$$$$++   . @"};
