/* XPM */
static char * F_xpm[] = {
"32 32 39 1",
" 	c #DBA050",
".	c #D0923F",
"+	c #A96826",
"@	c #D89E4F",
"#	c #D99F4F",
"$	c #C78C3C",
"%	c #000000",
"&	c #030201",
"*	c #BCA076",
"=	c #EBB123",
"-	c #FFCE48",
";	c #906E53",
">	c #CF913F",
",	c #A06324",
"'	c #A86726",
")	c #020101",
"!	c #96B337",
"~	c #6A791D",
"{	c #050301",
"]	c #DA9F50",
"^	c #D89D4F",
"/	c #D79D4E",
"(	c #FBFF4E",
"_	c #030301",
":	c #C4893B",
"<	c #CE913F",
"[	c #0A0804",
"}	c #814616",
"|	c #DF8735",
"1	c #BA9E74",
"2	c #CD7930",
"3	c #B7956E",
"4	c #F74724",
"5	c #040302",
"6	c #A76726",
"7	c #DE3F20",
"8	c #CC954B",
"9	c #E94222",
"0	c #D49B4D",
"     . + .     + .     + .@#   +",
"       +     . + .     + $%%   +",
"  .    + %%%%. +       + &*&.  +",
"  .    +%==--% +     . +%;*&>  +",
"  .    %%%=--%%,     . '%;*).  +",
"  .   %%!%=--%%%     . %;;*%.  +",
"  .   %~!%=--%!{     .]%;;*%.  +",
"  .  %%~!!%%%!!%+++++++%;**%.  +",
"  .  %%~!!!!!!!%^.    ]%;**%   +",
"  .  %%~%!!!!!%%/   . %;;**%   +",
"  . %%%~%%!!!!%%%   . %;;*%]   +",
"    %%~~!%!!!%%!%   . %;**%    +",
"    %%~~(%%~%%(~%   . &;**%  . +",
"    %%~!(%!!!%(!!%  .]_;*%:  . +",
".  %%~~!!!-!!-!!!%  .%;;*%<  . +",
"+++%%~~!!!----!!!%  .%;**[.    +",
" . %%~(!(!(!(!(!(%/ .%;*%/.    +",
"  %%%%((((((((((((%]@%;*% .    +",
" %}||%((((((((((((%%%;;1% .    +",
" %}||%!!!!!!!!!!!!%|%;*%] .    +",
"%%}||%%%%%%%%%%%%%2|%;3%     . +",
"%}}|||%|||||||||%%2|%*%%     . +",
" %~~%%%|44444444|%~5%*%6     . +",
" %~~%}||44||||44|%~!%*%+++++++++",
" %~~%}||47444474|%~!%%*%   .   +",
"%~!!!%||4|4||4|4|%%!!%*%   .   +",
"%~!!!%||4||||||4|%%%%8%%   .   +",
"%~!!!%||49444494|%%0   +     . +",
" %%%%}||4||||||4||%    +     . +",
"  %%}}||44444444||%    +     . +",
"  %%}}||||||||||||%    + .   . +",
"  %%%%%%%%%%%%%%%%%    + .   . +"};
