/* XPM */
static char * F2_xpm[] = {
"32 32 26 1",
" 	c #DBA050",
".	c #D0923F",
"+	c #A96826",
"@	c #000000",
"#	c #EBB123",
"$	c #FFCE48",
"%	c #A76726",
"&	c #96B337",
"*	c #BCA076",
"=	c #6A791D",
"-	c #050301",
";	c #906E53",
">	c #D89D4F",
",	c #D79D4E",
"'	c #FBFF4E",
")	c #A66625",
"!	c #DA9F50",
"~	c #814616",
"{	c #DF8735",
"]	c #020101",
"^	c #030201",
"/	c #CD7930",
"(	c #F74724",
"_	c #DE3F20",
":	c #C49C79",
"<	c #E94222",
"     . + .     + .     + .     +",
"       +     . + .     + .     +",
"  .    +     . +       + .  .  +",
"  .    + @@@@  +     . +    .  +",
"  .    +@##$$@ +     . +    .  +",
"  .    @@@#$$@@%     . +    @@@@",
"  .   @@&@#$$@@@     . +   @@**@",
"  .   @=&@#$$@&-++++++++   @;;*@",
"  .  @@=&&@@@&&@ .     +  @;;;*@",
"  .  @@=&&&&&&&@>   .  +  @;;**@",
"  .  @@=@&&&&&@@,   .  + @;;;**@",
"    @@@=@@&&&&@@@   .  + @;;**@+",
"    @@==&@&&&@@&@   .  + @;;**@+",
"    @@=='@@=@@'=@   .  +@;;;*@ +",
".   @@=&'@&&&@'&&@  .  +@;;**@ +",
"+++@@==&&&$&&$&&&@  .  )@;**@  +",
" . @@==&&&$$$$&&&@  .  @;;**@  +",
"   @@='&'&'&'&'&'@    !@;**@   +",
"  @@@@''''''''''''@,  @;;*@    +",
" @~{{@''''''''''''@]!!@;**@    +",
" @~{{@&&&&&&&&&&&&@{^@;;*@   . +",
"@@~{{@@@@@@@@@@@@@/{@;;*@@   . +",
"@~~{{{@{{{{{{{{{@@/{@;*@@    . +",
" @==@@@{(((((((({@=@;;*@++++++++",
" @==@~{{(({{{{(({@=@;*@@   .   +",
" @==@~{{(_((((_({@=@:@@+   .   +",
"@=&&&@{{({({{({({@@&@*@+   .   +",
"@=&&&@{{({{{{{{({@@&@@*@     . +",
"@=&&&@{{(<((((<({@@@@ @@     . +",
" @@@@~{{({{{{{{({{@    +     . +",
"  @@~~{{(((((((({{@    + .   . +",
"  @@@@@@@@@@@@@@@@@    + .   . +"};
