/* XPM */
static char * P2_xpm[] = {
"32 32 23 1",
" 	c #DBA050",
".	c #D0923F",
"+	c #A96826",
"@	c #000000",
"#	c #0037CB",
"$	c #FF3740",
"%	c #AE0007",
"&	c #A86826",
"*	c #FFFFFF",
"=	c #010100",
"-	c #FFBE7F",
";	c #010101",
">	c #010000",
",	c #030201",
"'	c #643200",
")	c #630005",
"!	c #000102",
"~	c #4779FF",
"{	c #000104",
"]	c #AA6C25",
"^	c #DBA44C",
"/	c #AA6A25",
"(	c #DBA24E",
"     . + .     + .     + .     +",
"       +     . + .     + .     +",
"  .    +     . +@@@    + .  .  +",
"  .    +      @@###@ . +    .  +",
"  .    +    @@######@. +    .  +",
"  .    +  @@########@. +    .  +",
"  .    + @@#########@. +    .  +",
"  .    +@###########@+++    .  +",
"  .  . +@@##########@  +       +",
"  .  . + @@######$$$@  +       +",
"  .  . +  @@##$$$$$$@ @@  .    +",
"     . +   @$$$$$@@@@@@+  .    +",
"     . +   @%$@@@@@@@  &  .  . +",
"   @ . +  @@@@@@@@@@@@ + @.  . +",
". @*@. +@@@=@--@@@@-@  +@*@  . +",
"++@**@@+ . @-----@@--@ @**@    +",
" . @***@ . @---@---@-@ @*@.    +",
"  @*@@**@. @---@---@-@@*@*@    +",
"  @******@ @---------@****@    +",
"   @@@****@@---------@**@@.    +",
"   @*******@=-------=;***@   . +",
"    @@@@*@@#@-------@#@@@@   . +",
"    .  +@####@=---=@###@     . +",
"    .  @######$@@@$####>,+++++++",
"    .  =-'@@##%$)$%#!@'-@  .   +",
"    .  @--@@##$***$#@@--@  .   +",
"  .    +== @###~*~##@ ==   .   +",
"  .    + . @####*###@  +     . +",
"  .    + .@@########{@ +     . +",
"  .    + @#####@@#####@+     . +",
"  .  . +@#####@]^@#####@ .   . +",
"  .  . +@@@@@@@/(@@@@@@@ .   . +"};
